<svg width="629" height="628" viewBox="0 0 629 628" fill="none" xmlns="http://www.w3.org/2000/svg">
<path d="M12.1866 533.185L621.528 542.4L617.742 579.5H47.1492L12.1866 533.185Z" fill="#D9D9D9" stroke="black" stroke-width="12"/>
<path d="M22.9542 494.5L294.723 69.184L299.433 494.5H22.9542Z" fill="#D9D9D9" stroke="black" stroke-width="12"/>
<mask id="path-3-inside-1_76_37" fill="white">
<path fill-rule="evenodd" clip-rule="evenodd" d="M381.722 37.7288C380.879 36.6173 379.238 36.7746 378.523 37.9717L95.1718 512.03C93.9857 514.014 95.3955 516.538 97.7073 516.569L614.636 523.403C616.675 523.43 617.601 520.542 615.962 519.329C596.951 505.259 537.651 454.065 504.799 342.847C494.633 349.88 482.297 354 469 354C434.206 354 406 325.794 406 291C406 256.206 434.206 228 469 228C471.19 228 473.355 228.112 475.487 228.33C441.087 119.315 391.526 50.664 381.722 37.7288Z"/>
</mask>
<path fill-rule="evenodd" clip-rule="evenodd" d="M381.722 37.7288C380.879 36.6173 379.238 36.7746 378.523 37.9717L95.1718 512.03C93.9857 514.014 95.3955 516.538 97.7073 516.569L614.636 523.403C616.675 523.43 617.601 520.542 615.962 519.329C596.951 505.259 537.651 454.065 504.799 342.847C494.633 349.88 482.297 354 469 354C434.206 354 406 325.794 406 291C406 256.206 434.206 228 469 228C471.19 228 473.355 228.112 475.487 228.33C441.087 119.315 391.526 50.664 381.722 37.7288Z" fill="#D9D9D9"/>
<path d="M378.523 37.9717L368.222 31.815L368.222 31.8151L378.523 37.9717ZM381.722 37.7288L372.158 44.9773L372.158 44.9774L381.722 37.7288ZM95.1718 512.03L105.472 518.187L105.472 518.186L95.1718 512.03ZM97.7073 516.569L97.8659 504.57L97.8658 504.57L97.7073 516.569ZM614.636 523.403L614.477 535.402L614.477 535.402L614.636 523.403ZM615.962 519.329L608.823 528.975L608.823 528.975L615.962 519.329ZM504.799 342.847L516.307 339.448L511.61 323.545L497.972 332.979L504.799 342.847ZM475.487 228.33L474.266 240.268L492.424 242.125L486.931 224.719L475.487 228.33ZM388.823 44.1284C385.583 49.5482 376.925 51.2664 372.158 44.9773L391.285 30.4802C384.833 21.9682 372.893 24.0009 368.222 31.815L388.823 44.1284ZM105.472 518.186L388.823 44.1283L368.222 31.8151L84.8715 505.873L105.472 518.186ZM97.8658 504.57C104.801 504.661 109.031 512.233 105.472 518.187L84.8715 505.873C78.9406 515.796 85.99 528.415 97.5487 528.568L97.8658 504.57ZM614.795 511.404L97.8659 504.57L97.5486 528.568L614.477 535.402L614.795 511.404ZM608.823 528.975C604.561 525.821 604.347 520.961 605.26 518.138C606.181 515.292 609.309 511.331 614.794 511.404L614.477 535.402C622.002 535.501 626.612 530.11 628.096 525.524C629.571 520.961 629.001 514.051 623.1 509.683L608.823 528.975ZM493.291 346.247C527.029 460.463 588.174 513.692 608.823 528.975L623.1 509.684C605.728 496.826 548.274 447.668 516.307 339.448L493.291 346.247ZM497.972 332.979C489.747 338.668 479.781 342 469 342V366C484.814 366 499.518 361.092 511.626 352.716L497.972 332.979ZM469 342C440.833 342 418 319.167 418 291H394C394 332.421 427.579 366 469 366V342ZM418 291C418 262.833 440.833 240 469 240V216C427.579 216 394 249.579 394 291H418ZM469 240C470.782 240 472.539 240.091 474.266 240.268L476.709 216.392C474.171 216.133 471.599 216 469 216V240ZM372.158 44.9774C381.428 57.207 430.183 124.634 464.044 231.941L486.931 224.719C451.992 113.995 401.624 44.1209 391.285 30.4801L372.158 44.9774Z" fill="black" mask="url(#path-3-inside-1_76_37)"/>
</svg>
