<svg width="868" height="550" viewBox="0 0 868 550" fill="none" xmlns="http://www.w3.org/2000/svg">
<path d="M574.001 469L574.001 292.321M574.001 292.321C574.001 292.321 634.5 291.895 632.501 248.321C630.909 213.614 584.241 212.411 571.946 212.699C570.301 212.737 569.084 214.143 569.188 215.786L574.001 292.321Z" stroke="white" stroke-width="22"/>
<path d="M746.03 282.459C746.03 282.459 705.512 300.111 691.176 279.224C685.231 270.564 684.489 263.685 684.452 253.181C684.409 241.155 684.943 232.501 693.038 223.607C706.101 209.254 733.18 211.551 742.7 228.558C745.559 233.665 746.029 242.059 746.067 246.392C746.081 247.961 744.818 249.206 743.249 249.248L693.038 250.604" stroke="white" stroke-width="22" stroke-linecap="round"/>
<path d="M795.91 288.321L795.91 219.956C795.91 218.247 797.335 216.884 799.042 216.959L849.59 219.194C851.194 219.265 852.457 220.586 852.457 222.191L852.458 289.246" stroke="white" stroke-width="22" stroke-linecap="round"/>
<path d="M12.1866 497.185L621.528 506.4L617.742 543.5H47.1492L12.1866 497.185Z" fill="#D9D9D9" stroke="black" stroke-width="12"/>
<path d="M22.9542 458.5L294.723 33.184L299.433 458.5H22.9542Z" fill="#D9D9D9" stroke="black" stroke-width="12"/>
<mask id="path-6-inside-1_76_9" fill="white">
<path fill-rule="evenodd" clip-rule="evenodd" d="M381.722 1.72878C380.879 0.61731 379.238 0.774566 378.523 1.97169L95.1718 476.03C93.9857 478.014 95.3955 480.538 97.7073 480.569L614.636 487.403C616.675 487.43 617.601 484.542 615.962 483.329C596.951 469.259 537.651 418.065 504.799 306.847C494.633 313.88 482.297 318 469 318C434.206 318 406 289.794 406 255C406 220.206 434.206 192 469 192C471.19 192 473.355 192.112 475.487 192.33C441.087 83.3147 391.526 14.664 381.722 1.72878Z"/>
</mask>
<path fill-rule="evenodd" clip-rule="evenodd" d="M381.722 1.72878C380.879 0.61731 379.238 0.774566 378.523 1.97169L95.1718 476.03C93.9857 478.014 95.3955 480.538 97.7073 480.569L614.636 487.403C616.675 487.43 617.601 484.542 615.962 483.329C596.951 469.259 537.651 418.065 504.799 306.847C494.633 313.88 482.297 318 469 318C434.206 318 406 289.794 406 255C406 220.206 434.206 192 469 192C471.19 192 473.355 192.112 475.487 192.33C441.087 83.3147 391.526 14.664 381.722 1.72878Z" fill="#D9D9D9"/>
<path d="M378.523 1.97169L368.222 -4.185L368.222 -4.18493L378.523 1.97169ZM381.722 1.72878L372.158 8.97734L372.158 8.97742L381.722 1.72878ZM95.1718 476.03L105.472 482.187L105.472 482.186L95.1718 476.03ZM97.7073 480.569L97.8659 468.57L97.8658 468.57L97.7073 480.569ZM614.636 487.403L614.477 499.402L614.477 499.402L614.636 487.403ZM615.962 483.329L608.823 492.975L608.823 492.975L615.962 483.329ZM504.799 306.847L516.307 303.448L511.61 287.545L497.972 296.979L504.799 306.847ZM475.487 192.33L474.266 204.268L492.424 206.125L486.931 188.719L475.487 192.33ZM388.823 8.12837C385.583 13.5482 376.925 15.2664 372.158 8.97734L391.285 -5.51978C384.833 -14.0318 372.893 -11.9991 368.222 -4.185L388.823 8.12837ZM105.472 482.186L388.823 8.12831L368.222 -4.18493L84.8715 469.873L105.472 482.186ZM97.8658 468.57C104.801 468.661 109.031 476.233 105.472 482.187L84.8715 469.873C78.9406 479.796 85.99 492.415 97.5487 492.568L97.8658 468.57ZM614.795 475.404L97.8659 468.57L97.5486 492.568L614.477 499.402L614.795 475.404ZM608.823 492.975C604.561 489.821 604.347 484.961 605.26 482.138C606.181 479.292 609.309 475.331 614.794 475.404L614.477 499.402C622.002 499.501 626.612 494.11 628.096 489.524C629.571 484.961 629.001 478.051 623.1 473.683L608.823 492.975ZM493.291 310.247C527.029 424.463 588.174 477.692 608.823 492.975L623.1 473.684C605.728 460.826 548.274 411.668 516.307 303.448L493.291 310.247ZM497.972 296.979C489.747 302.668 479.781 306 469 306V330C484.814 330 499.518 325.092 511.626 316.716L497.972 296.979ZM469 306C440.833 306 418 283.167 418 255H394C394 296.421 427.579 330 469 330V306ZM418 255C418 226.833 440.833 204 469 204V180C427.579 180 394 213.579 394 255H418ZM469 204C470.782 204 472.539 204.091 474.266 204.268L476.709 180.392C474.171 180.133 471.599 180 469 180V204ZM372.158 8.97742C381.428 21.207 430.183 88.6344 464.044 195.941L486.931 188.719C451.992 77.995 401.624 8.12094 391.285 -5.51986L372.158 8.97742Z" fill="black" mask="url(#path-6-inside-1_76_9)"/>
</svg>
